<svg xmlns="http://www.w3.org/2000/svg" width="89" height="46" viewBox="0 0 89 46" fill="none">
  <circle cx="48.5" cy="1.5" r="1.5" fill="#A1A1A1"/>
  <circle cx="39.5" cy="1.5" r="1.5" fill="#A1A1A1"/>
  <circle cx="29.5" cy="2.5" r="1.5" fill="#A1A1A1"/>
  <circle cx="20.5" cy="4.5" r="1.5" fill="#A1A1A1"/>
  <circle cx="58.5" cy="2.5" r="1.5" fill="#A1A1A1"/>
  <circle cx="66.5" cy="4.5" r="1.5" fill="#A1A1A1"/>
  <circle cx="74.5" cy="7.5" r="1.5" fill="#A1A1A1"/>
  <circle cx="18" cy="39" r="2" fill="#A1A1A1"/>
  <circle cx="70" cy="39" r="2" fill="#A1A1A1"/>
  <circle cx="3" cy="17" r="2" fill="#A1A1A1"/>
  <circle cx="2" cy="23" r="2" fill="#A1A1A1"/>
  <circle cx="5" cy="28" r="2" fill="#A1A1A1"/>
  <circle cx="10" cy="34" r="2" fill="#A1A1A1"/>
  <circle cx="13.5" cy="7.5" r="1.5" fill="#A1A1A1"/>
  <circle cx="7.5" cy="11.5" r="1.5" fill="#A1A1A1"/>
  <circle cx="78" cy="35" r="2" fill="#A1A1A1"/>
  <circle cx="84" cy="30" r="2" fill="#A1A1A1"/>
  <circle cx="87" cy="24" r="2" fill="#A1A1A1"/>
  <circle cx="28" cy="42" r="2" fill="#A1A1A1"/>
  <circle cx="81.5" cy="12.5" r="1.5" fill="#A1A1A1"/>
  <circle cx="85.5" cy="17.5" r="1.5" fill="#A1A1A1"/>
  <circle cx="60.5" cy="41.5" r="2.5" fill="#A1A1A1"/>
  <circle cx="49.5" cy="43.5" r="2.5" fill="#A1A1A1"/>
  <circle cx="38.5" cy="43.5" r="2.5" fill="#DB6300"/>
</svg>
